<?xml version="1.0" encoding="UTF-8"?>
<svg version="1.1" xmlns="http://www.w3.org/2000/svg" width="377" height="377">
<path d="M0 0 C10.89 0 21.78 0 33 0 C33 10.56 33 21.12 33 32 C37.95 32 42.9 32 48 32 C48 21.44 48 10.88 48 0 C58.89 0 69.78 0 81 0 C81 10.56 81 21.12 81 32 C75.72 32 70.44 32 65 32 C65 42.56 65 53.12 65 64 C80.84 64 96.68 64 113 64 C113 69.28 113 74.56 113 80 C123.56 80 134.12 80 145 80 C145 85.28 145 90.56 145 96 C150.28 96 155.56 96 161 96 C161 111.84 161 127.68 161 144 C166.28 144 171.56 144 177 144 C177 170.4 177 196.8 177 224 C171.72 224 166.44 224 161 224 C161 239.84 161 255.68 161 272 C150.44 272 139.88 272 129 272 C129 303.68 129 335.36 129 368 C112.83 368 96.66 368 80 368 C80 352.16 80 336.32 80 320 C53.93 320 27.86 320 1 320 C1 335.84 1 351.68 1 368 C-15.17 368 -31.34 368 -48 368 C-48 336.32 -48 304.64 -48 272 C-58.56 272 -69.12 272 -80 272 C-80 261.44 -80 250.88 -80 240 C-85.28 240 -90.56 240 -96 240 C-96 208.32 -96 176.64 -96 144 C-90.72 144 -85.44 144 -80 144 C-80 128.16 -80 112.32 -80 96 C-74.72 96 -69.44 96 -64 96 C-64 90.72 -64 85.44 -64 80 C-53.44 80 -42.88 80 -32 80 C-32 74.72 -32 69.44 -32 64 C-16.16 64 -0.32 64 16 64 C16 53.44 16 42.88 16 32 C10.72 32 5.44 32 0 32 C0 21.44 0 10.88 0 0 Z " fill="#A7D3DE" transform="translate(155,5)"/>
<path d="M0 0 C73.92 0 147.84 0 224 0 C224 15.84 224 31.68 224 48 C150.08 48 76.16 48 0 48 C0 32.16 0 16.32 0 0 Z " fill="#EDE8A3" transform="translate(75,181)"/>
<path d="M0 0 C52.8 0 105.6 0 160 0 C160 5.28 160 10.56 160 16 C107.2 16 54.4 16 0 16 C0 10.72 0 5.44 0 0 Z " fill="#AEA859" transform="translate(107,197)"/>
<path d="M0 0 C15.84 0 31.68 0 48 0 C48 5.28 48 10.56 48 16 C37.44 16 26.88 16 16 16 C16 21.28 16 26.56 16 32 C21.28 32 26.56 32 32 32 C32 37.28 32 42.56 32 48 C21.44 48 10.88 48 0 48 C0 32.16 0 16.32 0 0 Z " fill="#3BD29D" transform="translate(219,117)"/>
<path d="M0 0 C15.84 0 31.68 0 48 0 C48 15.84 48 31.68 48 48 C37.44 48 26.88 48 16 48 C16 42.72 16 37.44 16 32 C21.28 32 26.56 32 32 32 C32 26.72 32 21.44 32 16 C21.44 16 10.88 16 0 16 C0 10.72 0 5.44 0 0 Z " fill="#3BD19C" transform="translate(107,117)"/>
<path d="M0 0 C26.4 0 52.8 0 80 0 C80 5.28 80 10.56 80 16 C53.6 16 27.2 16 0 16 C0 10.72 0 5.44 0 0 Z " fill="#68B1C5" transform="translate(155,309)"/>
<path d="M0 0 C15.84 0 31.68 0 48 0 C48 5.28 48 10.56 48 16 C42.72 16 37.44 16 32 16 C32 21.28 32 26.56 32 32 C26.72 32 21.44 32 16 32 C16 26.72 16 21.44 16 16 C10.72 16 5.44 16 0 16 C0 10.72 0 5.44 0 0 Z " fill="#68B1C5" transform="translate(171,261)"/>
<path d="M0 0 C10.56 0 21.12 0 32 0 C32 10.56 32 21.12 32 32 C26.72 32 21.44 32 16 32 C16 26.72 16 21.44 16 16 C10.72 16 5.44 16 0 16 C0 10.72 0 5.44 0 0 Z " fill="#68B0C4" transform="translate(235,133)"/>
<path d="M0 0 C10.56 0 21.12 0 32 0 C32 5.28 32 10.56 32 16 C26.72 16 21.44 16 16 16 C16 21.28 16 26.56 16 32 C10.72 32 5.44 32 0 32 C0 21.44 0 10.88 0 0 Z " fill="#68B1C5" transform="translate(107,133)"/>
<path d="M0 0 C15.84 0 31.68 0 48 0 C48 5.28 48 10.56 48 16 C32.16 16 16.32 16 0 16 C0 10.72 0 5.44 0 0 Z " fill="#000000" transform="translate(219,117)"/>
<path d="M0 0 C15.84 0 31.68 0 48 0 C48 5.28 48 10.56 48 16 C32.16 16 16.32 16 0 16 C0 10.72 0 5.44 0 0 Z " fill="#000000" transform="translate(107,117)"/>
<path d="M0 0 C10.56 0 21.12 0 32 0 C32 5.28 32 10.56 32 16 C21.44 16 10.88 16 0 16 C0 10.72 0 5.44 0 0 Z " fill="#68B1C5" transform="translate(283,261)"/>
<path d="M0 0 C10.56 0 21.12 0 32 0 C32 5.28 32 10.56 32 16 C21.44 16 10.88 16 0 16 C0 10.72 0 5.44 0 0 Z " fill="#68B0C4" transform="translate(75,261)"/>
<path d="M0 0 C5.61 0 11.22 0 17 0 C17 5.28 17 10.56 17 16 C11.39 16 5.78 16 0 16 C0 10.72 0 5.44 0 0 Z " fill="#EDE8A7" transform="translate(251,69)"/>
<path d="M0 0 C5.28 0 10.56 0 16 0 C16 5.28 16 10.56 16 16 C10.72 16 5.44 16 0 16 C0 10.72 0 5.44 0 0 Z " fill="#68B1C5" transform="translate(267,357)"/>
<path d="M0 0 C5.28 0 10.56 0 16 0 C16 5.28 16 10.56 16 16 C10.72 16 5.44 16 0 16 C0 10.72 0 5.44 0 0 Z " fill="#68B0C4" transform="translate(107,357)"/>
<path d="M0 0 C5.28 0 10.56 0 16 0 C16 5.28 16 10.56 16 16 C10.72 16 5.44 16 0 16 C0 10.72 0 5.44 0 0 Z " fill="#68B1C5" transform="translate(219,277)"/>
<path d="M0 0 C5.28 0 10.56 0 16 0 C16 5.28 16 10.56 16 16 C10.72 16 5.44 16 0 16 C0 10.72 0 5.44 0 0 Z " fill="#68B1C5" transform="translate(155,277)"/>
<path d="M0 0 C5.28 0 10.56 0 16 0 C16 5.28 16 10.56 16 16 C10.72 16 5.44 16 0 16 C0 10.72 0 5.44 0 0 Z " fill="#68B0C4" transform="translate(59,229)"/>
<path d="M0 0 C5.28 0 10.56 0 16 0 C16 5.28 16 10.56 16 16 C10.72 16 5.44 16 0 16 C0 10.72 0 5.44 0 0 Z " fill="#68B1C5" transform="translate(315,213)"/>
<path d="M0 0 C5.28 0 10.56 0 16 0 C16 5.28 16 10.56 16 16 C10.72 16 5.44 16 0 16 C0 10.72 0 5.44 0 0 Z " fill="#68B1C5" transform="translate(299,133)"/>
<path d="M0 0 C5.28 0 10.56 0 16 0 C16 5.28 16 10.56 16 16 C10.72 16 5.44 16 0 16 C0 10.72 0 5.44 0 0 Z " fill="#C47D68" transform="translate(235,133)"/>
<path d="M0 0 C5.28 0 10.56 0 16 0 C16 5.28 16 10.56 16 16 C10.72 16 5.44 16 0 16 C0 10.72 0 5.44 0 0 Z " fill="#C47D68" transform="translate(123,133)"/>
<path d="M0 0 C5.28 0 10.56 0 16 0 C16 5.28 16 10.56 16 16 C10.72 16 5.44 16 0 16 C0 10.72 0 5.44 0 0 Z " fill="#68B0C4" transform="translate(75,133)"/>
<path d="M0 0 C5.28 0 10.56 0 16 0 C16 5.28 16 10.56 16 16 C10.72 16 5.44 16 0 16 C0 10.72 0 5.44 0 0 Z " fill="#68B1C5" transform="translate(283,85)"/>
<path d="M0 0 C5.28 0 10.56 0 16 0 C16 5.28 16 10.56 16 16 C10.72 16 5.44 16 0 16 C0 10.72 0 5.44 0 0 Z " fill="#68B0C4" transform="translate(91,85)"/>
<path d="M0 0 C5.28 0 10.56 0 16 0 C16 5.28 16 10.56 16 16 C10.72 16 5.44 16 0 16 C0 10.72 0 5.44 0 0 Z " fill="#ECE7A2" transform="translate(123,69)"/>
<path d="M0 0 C5.28 0 10.56 0 16 0 C16 5.28 16 10.56 16 16 C10.72 16 5.44 16 0 16 C0 10.72 0 5.44 0 0 Z " fill="#68B1C5" transform="translate(203,53)"/>
<path d="M0 0 C5.28 0 10.56 0 16 0 C16 5.28 16 10.56 16 16 C10.72 16 5.44 16 0 16 C0 10.72 0 5.44 0 0 Z " fill="#68B0C4" transform="translate(171,53)"/>
<path d="M0 0 C5.28 0 10.56 0 16 0 C16 5.28 16 10.56 16 16 C10.72 16 5.44 16 0 16 C0 10.72 0 5.44 0 0 Z " fill="#68B1C5" transform="translate(219,21)"/>
<path d="M0 0 C5.28 0 10.56 0 16 0 C16 5.28 16 10.56 16 16 C10.72 16 5.44 16 0 16 C0 10.72 0 5.44 0 0 Z " fill="#68B0C4" transform="translate(155,21)"/>
</svg>
